<svg width="66" height="66" viewBox="0 0 66 66" fill="none" xmlns="http://www.w3.org/2000/svg">
<g clip-path="url(#clip0_11184_1380)">
<path d="M65.8016 19.3943C65.641 15.8817 65.0831 13.4828 64.2673 11.384C63.439 9.18205 62.1399 7.18753 60.4611 5.53894C58.813 3.86014 56.8179 2.5605 54.616 1.73167C52.5167 0.916443 50.1183 0.359024 46.6057 0.199402C43.0864 0.038269 41.962 0 33 0C24.038 0 22.9136 0.038269 19.3943 0.198395C15.8817 0.359024 13.4833 0.916946 11.384 1.73268C9.18205 2.561 7.18753 3.86014 5.53894 5.53894C3.86014 7.18703 2.5605 9.18155 1.73167 11.3835C0.916443 13.4828 0.359024 15.8817 0.199402 19.3938C0.038269 22.9136 0 24.0375 0 32.9995C0 41.962 0.038269 43.0864 0.199402 46.6057C0.359528 50.1178 0.91745 52.5167 1.73318 54.616C2.56151 56.8174 3.86064 58.8125 5.53944 60.4606C7.18753 62.1394 9.18256 63.4385 11.3845 64.2668C13.4833 65.0831 15.8822 65.6405 19.3949 65.8011C22.9146 65.9617 24.0385 65.9995 33.0005 65.9995C41.9625 65.9995 43.0869 65.9617 46.6062 65.8011C50.1189 65.6405 52.5172 65.0831 54.6165 64.2668C59.0491 62.5528 62.5533 59.0486 64.2673 54.616C65.0836 52.5167 65.641 50.1178 65.8016 46.6057C65.9617 43.0859 66 41.962 66 33C66 24.0375 65.9617 22.9136 65.8016 19.3943ZM59.8613 46.3353C59.7148 49.5529 59.177 51.3002 58.7254 52.4628C57.6151 55.3411 55.3406 57.6156 52.4623 58.7259C51.2997 59.1775 49.5524 59.7153 46.3347 59.8618C42.8558 60.021 41.812 60.0542 33 60.0542C24.1875 60.0542 23.1442 60.021 19.6647 59.8618C16.4476 59.7153 14.7003 59.1775 13.5372 58.7259C12.1041 58.1966 10.8075 57.3532 9.743 56.257C8.64679 55.1925 7.80336 53.8964 7.27414 52.4628C6.82246 51.3002 6.28468 49.5529 6.13815 46.3353C5.97954 42.8558 5.9458 41.812 5.9458 33.0005C5.9458 24.1886 5.97954 23.1452 6.13815 19.6653C6.28519 16.4476 6.82246 14.7003 7.27414 13.5377C7.80336 12.1041 8.64729 10.8075 9.743 9.743C10.8075 8.64679 12.1041 7.80336 13.5377 7.27464C14.7003 6.82246 16.4476 6.28519 19.6653 6.13815C23.1447 5.97954 24.1886 5.9458 33 5.9458H32.9995C41.8109 5.9458 42.8548 5.97954 46.3347 6.13866C49.5524 6.28519 51.2991 6.82297 52.4623 7.27464C53.8954 7.80386 55.192 8.64729 56.2565 9.743C57.3527 10.8075 58.1961 12.1041 58.7249 13.5377C59.177 14.7003 59.7148 16.4476 59.8613 19.6653C60.02 23.1447 60.0537 24.1886 60.0537 33C60.0537 41.812 60.0205 42.8553 59.8613 46.3353Z" fill="url(#paint0_linear_11184_1380)"/>
<path d="M33.0003 16.0537C23.6415 16.0537 16.0547 23.6411 16.0547 32.9998C16.0547 42.3586 23.6415 49.9455 33.0003 49.9455C42.3596 49.9455 49.9465 42.3586 49.9465 32.9998C49.9465 23.6411 42.3596 16.0537 33.0003 16.0537ZM33.0003 43.9997C26.9256 43.9992 22.0005 39.0746 22.001 32.9993C22.001 26.9246 26.9256 21.9995 33.0008 21.9995C39.076 22 44.0007 26.9246 44.0007 32.9993C44.0007 39.0746 39.0755 43.9997 33.0003 43.9997Z" fill="url(#paint1_linear_11184_1380)"/>
<path d="M54.5745 15.3842C54.5745 17.571 52.8015 19.344 50.6146 19.344C48.4273 19.344 46.6543 17.571 46.6543 15.3842C46.6543 13.1968 48.4273 11.4238 50.6146 11.4238C52.8015 11.4238 54.5745 13.1968 54.5745 15.3842Z" fill="url(#paint2_linear_11184_1380)"/>
</g>
<defs>
<linearGradient id="paint0_linear_11184_1380" x1="5.53861" y1="60.4609" x2="60.4614" y2="5.53807" gradientUnits="userSpaceOnUse">
<stop stop-color="#FFD600"/>
<stop offset="0.5" stop-color="#FF0100"/>
<stop offset="1" stop-color="#D800B9"/>
</linearGradient>
<linearGradient id="paint1_linear_11184_1380" x1="21.0181" y1="44.9822" x2="44.9832" y2="21.0171" gradientUnits="userSpaceOnUse">
<stop stop-color="#FF6400"/>
<stop offset="0.5" stop-color="#FF0100"/>
<stop offset="1" stop-color="#FD0056"/>
</linearGradient>
<linearGradient id="paint2_linear_11184_1380" x1="47.8144" y1="18.184" x2="53.4145" y2="12.5839" gradientUnits="userSpaceOnUse">
<stop stop-color="#F30072"/>
<stop offset="1" stop-color="#E50097"/>
</linearGradient>
<clipPath id="clip0_11184_1380">
<rect width="66" height="66" fill="white"/>
</clipPath>
</defs>
</svg>
